# xmcd
#
# Track frame offsets:
#	150
#	12762
#	24072
#	37411
#	47378
#	60026
#	68878
#	80616
#	92490
#	107768
#	117101
#	133316
#	143666
#	160650
#
# Disc length: 2274 seconds
#
# Revision: 0
# Processed by: cddbd v1.5.1PL2 Copyright (c) Steve Scherf et al.
# Submitted via: EasyCDDAExtractor 8.2.4.1
#
DISCID=a708e00e
DTITLE=Frank Sinatra and Elvis Presley - The Best of Swing
DYEAR=2006
DGENRE=Swing
TTITLE0=Can't be friends?
TTITLE1=I forgot to remember to forget (Elvis Presley)
TTITLE2=Dancing on the ceiling
TTITLE3=You're a heartbreaker (Elvis Presley)
TTITLE4=Deep in a dream
TTITLE5=That's all right (Elvis Presley)
TTITLE6=Glad to be unhappy
TTITLE7=I'm left, you're right, she's gone (Elvis Presley)
TTITLE8=I see your face before me
TTITLE9=Blue moon of Kentucky (Elvis Presley)
TTITLE10=This love of mine
TTITLE11=Baby, let's play house (Elvis Presley)
TTITLE12=I'll wind
TTITLE13=Good rocking tonight (Elvis Presley)
EXTD=
EXTT0=
EXTT1=
EXTT2=
EXTT3=
EXTT4=
EXTT5=
EXTT6=
EXTT7=
EXTT8=
EXTT9=
EXTT10=
EXTT11=
EXTT12=
EXTT13=
PLAYORDER=
